<svg version="1.1" id="Layer_1" xmlns="http://www.w3.org/2000/svg" xmlns:xlink="http://www.w3.org/1999/xlink" x="0px" y="0px"
	 width="100%" viewBox="0 0 496 496" enable-background="new 0 0 496 496" xml:space="preserve">
<path fill="#000000" opacity="1.000000" stroke="none" 
	d="
M252.307495,228.542252 
	C260.740204,214.972473 275.442047,207.626175 289.173737,209.890411 
	C303.263947,212.213776 314.637329,222.693192 317.768616,237.165558 
	C323.868805,265.359711 297.804138,282.683868 278.016876,280.250244 
	C275.878540,279.987244 274.512634,279.059967 274.741882,276.753601 
	C275.070190,273.450287 275.403290,270.136169 275.998047,266.874695 
	C276.384949,264.753113 278.268127,264.782684 279.992828,264.829437 
	C283.317749,264.919556 286.643494,265.098053 289.881226,264.004761 
	C298.429657,261.118225 303.160187,254.113342 302.749603,244.881104 
	C302.368256,236.305679 295.311462,227.562622 287.121918,225.519028 
	C278.948761,223.479507 270.049164,227.364365 265.813751,234.897324 
	C265.003052,236.339203 264.221313,237.873749 263.839386,239.464722 
	C262.990326,243.001373 261.077393,243.790955 257.606598,243.001587 
	C247.150345,240.623535 247.125366,240.733353 252.307495,228.542252 
z"/>
<path fill="#000000" opacity="1.000000" stroke="none" 
	d="
M205.558319,223.441315 
	C212.841019,218.777893 220.458237,217.129684 228.701431,217.630066 
	C232.441803,217.857086 233.670151,219.283661 233.051498,222.973282 
	C231.417511,232.718155 231.498016,232.731644 223.365387,233.034134 
	C213.457306,233.402649 205.698975,240.181717 204.437286,249.573120 
	C203.235977,258.515045 210.702423,269.577484 219.772690,272.294373 
	C228.195862,274.817413 238.127335,270.212555 242.369064,261.817230 
	C246.192459,254.249893 246.138123,254.508057 254.275055,256.220154 
	C258.442047,257.096954 258.791351,258.934509 257.779510,262.474579 
	C253.765152,276.519531 239.676544,287.723938 225.041931,288.295532 
	C209.698410,288.894867 196.096313,279.578308 190.856812,264.880920 
	C185.186829,248.975998 190.307343,234.306656 205.558319,223.441315 
z"/>
</svg>